<svg xmlns="http://www.w3.org/2000/svg" viewBox="0 0 512 512" width="512" height="512">
  <g fill="#703478">
    <path d="M248.4 216.7c-19.2-33.9-39.7-62.45-43.8-68.15C171.7 164.25 147 195 139.1 231h1.2c11 0 56.7-.8 108.1-14.3zm15.7 40.2c1.3-.4 2.7-.8 4-1.2-2.8-6.4-5.9-12.6-9.1-18.9-53 15.8-104.6 17.2-119.4 17.2h-3.1c-.1 1-.1 1.7-.1 2.7 0 30.3 11.4 57.9 30 79.1 5.1-8.4 37.9-59.6 97.7-78.9zm70.7-90.2C313.7 148.2 286.2 137 256 137c-9.3 0-18.3 1.1-27 3.1 4.9 6.6 25.3 34.8 44 69 40.4-15.3 58.5-37.8 61.8-42.4z"/>
    <path d="M374 0H138C61.8 0 0 61.8 0 138v236c0 76.2 61.8 138 138 138h236c76.2 0 138-61.8 138-138V138C512 61.8 450.2 0 374 0zM256 397.7c-78.1 0-141.6-63.4-141.6-141.4S177.9 114.9 256 114.9s141.6 63.4 141.6 141.4S334.1 397.7 256 397.7z"/>
    <path d="M276.8 277c-65.5 23-90.3 67.35-93.7 74.05 20.2 15.6 45.5 24.875 72.9 24.875 16.4 0 32-3.262 46.2-9.162-1.9-11.1-8.9-46.763-25.3-89.763h-.1zm6-48.7c2.7 5.6 5.3 11.2 7.7 16.8l2.4 5.7c9.3-1.2 18.5-1.6 27.3-1.6 27.2 0 49.9 4.2 55.3 5.3-.4-27.5-10.3-52.8-26.4-72.8-4.1 5.4-24.3 29.3-66.3 46.6zm18 42.7c14.9 41.1 21.3 74.7 22.9 83.9 26.2-18.1 44.9-46.3 50.3-78.8-4.6-1.4-24.1-6.9-49.1-6.9-7.6 0-15.8.5-24.1 1.8z"/>
  </g>
</svg>